<svg width="457" height="141" viewBox="0 0 457 141" fill="none" xmlns="http://www.w3.org/2000/svg">
<path d="M38.8867 36.0493L41.3184 21.4146H46.2601C47.4031 21.4146 48.3107 21.6163 48.9719 22.0309C49.633 22.4455 50.0813 22.9946 50.3166 23.7006C50.5519 24.4065 50.5967 25.1797 50.451 26.0538C50.3054 26.9166 50.0028 27.6898 49.5322 28.3958C49.0615 29.1017 48.4228 29.662 47.6272 30.0879C46.8316 30.5025 45.8679 30.7154 44.7361 30.7154H41.1951L41.4528 29.1466H44.9378C45.7222 29.1466 46.3722 29.0121 46.8988 28.7432C47.4255 28.4742 47.8289 28.1044 48.1315 27.6338C48.4228 27.1632 48.6245 26.6477 48.7142 26.065C48.815 25.4711 48.7814 24.9444 48.6469 24.485C48.5012 24.0255 48.2211 23.667 47.7841 23.398C47.3471 23.1291 46.7307 23.0058 45.9463 23.0058H42.8311L40.6572 36.0717H38.8867V36.0493Z" fill="#D13328"/>
<path d="M65.1754 28.844C64.9177 30.368 64.4247 31.6903 63.6963 32.7884C62.9679 33.8978 62.0715 34.7494 61.0181 35.3433C59.9648 35.9372 58.8218 36.2398 57.6004 36.2398C56.3341 36.2398 55.2584 35.926 54.3619 35.3097C53.4767 34.6934 52.8379 33.8081 52.4569 32.6652C52.0759 31.5222 52.0199 30.1775 52.2776 28.6087C52.5354 27.0847 53.0284 25.7624 53.7568 24.6643C54.4852 23.5549 55.3816 22.7033 56.435 22.1093C57.4883 21.5154 58.6425 21.2129 59.8751 21.2129C61.1302 21.2129 62.2059 21.5267 63.0912 22.143C63.9764 22.7593 64.604 23.6445 64.9849 24.7875C65.3771 25.9305 65.4332 27.2864 65.1754 28.844ZM63.4946 28.6199C63.7075 27.376 63.6739 26.3227 63.4049 25.4711C63.136 24.6194 62.6878 23.9695 62.0603 23.5325C61.4327 23.0955 60.6819 22.8713 59.8191 22.8713C58.9114 22.8713 58.0598 23.1067 57.2418 23.5549C56.435 24.0143 55.7402 24.6867 55.1687 25.5831C54.586 26.4796 54.1826 27.5665 53.9809 28.844C53.768 30.0878 53.8016 31.1412 54.0706 31.9928C54.3395 32.8444 54.7877 33.4944 55.4265 33.9314C56.054 34.3684 56.8048 34.5925 57.6676 34.5925C58.5753 34.5925 59.4269 34.3684 60.2337 33.909C61.0405 33.4496 61.7353 32.7772 62.318 31.892C62.8895 30.9955 63.2817 29.9085 63.4946 28.6199Z" fill="#D13328"/>
<path d="M69.6127 36.0493L68.0439 21.4146H69.8481L70.935 33.3375H71.0807L76.1681 21.4146H78.1627L79.3057 33.3375H79.4514L84.4828 21.4146H86.2869L79.8548 36.0493H78.0283L76.7396 24.3953H76.6275L71.4505 36.0493H69.6127Z" fill="#D13328"/>
<path d="M86.0405 36.0493L88.4722 21.4146H97.3023L97.0446 22.9834H89.9849L89.1557 27.9251H95.7559L95.4982 29.4939H88.898L88.0688 34.4693H95.2404L94.9827 36.0381H86.0405V36.0493Z" fill="#D13328"/>
<path d="M98.0752 36.0493L100.507 21.4146H105.449C106.592 21.4146 107.499 21.6051 108.172 21.9973C108.844 22.3783 109.292 22.9162 109.539 23.5885C109.785 24.2609 109.83 25.0341 109.684 25.8969C109.539 26.7597 109.236 27.5217 108.777 28.1829C108.306 28.8552 107.679 29.3707 106.894 29.7517C106.099 30.1327 105.135 30.3232 104.003 30.3232H100.003L100.294 28.7208H104.238C105.023 28.7208 105.673 28.6087 106.177 28.3734C106.681 28.1381 107.096 27.8131 107.376 27.3985C107.656 26.9727 107.858 26.4684 107.947 25.8857C108.093 25.0004 107.959 24.2945 107.544 23.7678C107.129 23.2411 106.334 22.9722 105.146 22.9722H102.031L99.8457 36.0493H98.0752ZM106.042 29.4715L108.553 36.0493H106.491L104.037 29.4715H106.042Z" fill="#D13328"/>
<path d="M110.928 36.0493L113.36 21.4146H122.19L121.932 22.9834H114.873L114.043 27.9251H120.644L120.386 29.4939H113.786L112.956 34.4693H120.128L119.87 36.0381H110.928V36.0493Z" fill="#D13328"/>
<path d="M127.535 36.0493H122.963L125.395 21.4146H130.057C131.48 21.4146 132.645 21.7172 133.564 22.3111C134.483 22.905 135.133 23.7566 135.491 24.866C135.85 25.9753 135.906 27.2864 135.648 28.8216C135.402 30.3232 134.92 31.623 134.203 32.6988C133.497 33.7745 132.567 34.6038 131.446 35.1865C130.326 35.758 129.026 36.0493 127.535 36.0493ZM125.003 34.4805H127.591C128.802 34.4805 129.844 34.2452 130.729 33.7633C131.603 33.2815 132.32 32.6091 132.858 31.7239C133.396 30.8386 133.766 29.7965 133.967 28.5863C134.169 27.4209 134.147 26.4236 133.911 25.5944C133.676 24.7539 133.217 24.1152 132.533 23.667C131.85 23.2187 130.942 22.9946 129.788 22.9946H126.897L125.003 34.4805Z" fill="#D13328"/>
<path d="M143.078 36.0493L145.509 21.4146H150.63C151.65 21.4146 152.457 21.5939 153.062 21.9413C153.667 22.2887 154.082 22.7593 154.306 23.3532C154.53 23.9359 154.575 24.597 154.451 25.303C154.295 26.2443 153.936 26.9502 153.387 27.4097C152.838 27.8691 152.233 28.1829 151.594 28.3622L151.572 28.5078C152.009 28.5415 152.434 28.6983 152.838 28.9785C153.241 29.2586 153.555 29.6732 153.779 30.2111C154.003 30.749 154.048 31.3989 153.925 32.1721C153.802 32.9005 153.521 33.5616 153.084 34.1555C152.647 34.7382 152.042 35.2089 151.269 35.545C150.496 35.8924 149.532 36.0605 148.378 36.0605H143.078V36.0493ZM145.106 34.4805H148.624C149.779 34.4805 150.642 34.2564 151.202 33.8082C151.762 33.3599 152.109 32.8108 152.222 32.1721C152.3 31.6791 152.244 31.2196 152.065 30.7938C151.885 30.368 151.583 30.0318 151.157 29.7741C150.731 29.5164 150.204 29.3931 149.566 29.3931H145.969L145.106 34.4805ZM146.226 27.8467H149.51C150.048 27.8467 150.541 27.7459 151.011 27.5329C151.482 27.32 151.863 27.0287 152.177 26.6477C152.49 26.2667 152.692 25.8185 152.759 25.303C152.871 24.6643 152.748 24.1152 152.367 23.667C151.997 23.2187 151.325 22.9946 150.35 22.9946H147.022L146.226 27.8467Z" fill="#D13328"/>
<path d="M157.343 21.4146H159.371L162.318 28.2501H162.486L167.663 21.4146H169.691L162.979 30.0206L161.982 36.0493H160.211L161.209 30.0206L157.343 21.4146Z" fill="#D13328"/>
<path d="M36.2869 45.294L26 94.3975H221.955L232.23 45.294H36.2869Z" fill="#D13328"/>
<path d="M253.936 49.9781L256.85 36.0493H171.339L157.309 103.037H228.813L224.868 121H293.369L308.474 49.9781H253.936Z" fill="#02262B"/>
<path d="M186.455 94.4872C184.517 94.4872 182.69 94.1735 180.964 93.5347C179.239 92.896 177.737 91.9659 176.46 90.7221C175.182 89.4783 174.162 87.9655 173.423 86.1501C172.683 84.3348 172.302 82.2618 172.302 79.9086C172.302 76.7037 172.75 73.7678 173.647 71.1345C174.543 68.5011 175.787 66.2376 177.378 64.3438C178.97 62.4612 180.886 61.0045 183.116 59.9623C185.346 58.9314 187.789 58.416 190.433 58.416C192.226 58.416 193.918 58.7297 195.521 59.3572C197.123 59.9848 198.535 60.8924 199.734 62.0914C200.944 63.2904 201.897 64.7584 202.614 66.5065C203.32 68.2546 203.678 70.2604 203.678 72.5128C203.678 72.8601 203.667 73.2636 203.645 73.723C203.622 74.1824 203.589 74.6643 203.544 75.1461C203.499 75.628 203.454 76.1098 203.421 76.5692C203.376 77.0287 203.32 77.4209 203.264 77.7458H178.152C178.129 78.0484 178.118 78.3398 178.107 78.6199C178.096 78.9 178.096 79.1914 178.096 79.4939C178.096 81.2869 178.353 82.7996 178.869 84.0659C179.384 85.3321 180.057 86.3519 180.886 87.1475C181.715 87.9431 182.645 88.5146 183.676 88.8731C184.707 89.2317 185.749 89.411 186.814 89.411C189.122 89.411 190.971 89.0076 192.372 88.212C193.772 87.4164 194.837 86.3406 195.565 84.9848H201.482C201.112 86.3182 200.507 87.5733 199.667 88.7387C198.826 89.9041 197.762 90.9126 196.484 91.7642C195.207 92.6159 193.716 93.2882 192.024 93.7701C190.332 94.2407 188.472 94.4872 186.455 94.4872ZM197.795 73.2523C197.818 73.1403 197.829 72.9498 197.84 72.6584C197.851 72.3671 197.851 72.087 197.851 71.8068C197.851 70.6638 197.683 69.5881 197.347 68.5571C197.011 67.5374 196.518 66.6298 195.846 65.8566C195.173 65.0834 194.344 64.4671 193.358 64.0188C192.361 63.5706 191.218 63.3353 189.895 63.3353C188.562 63.3353 187.307 63.5706 186.141 64.0412C184.976 64.5119 183.923 65.1842 182.97 66.0583C182.018 66.9323 181.2 67.9744 180.516 69.1959C179.833 70.4173 179.272 71.762 178.869 73.2523H197.795Z" fill="white"/>
<path d="M219.535 94.4872C217.786 94.4872 216.15 94.1623 214.626 93.5011C213.091 92.84 211.758 91.8987 210.604 90.6773C209.449 89.4447 208.542 87.9655 207.869 86.2174C207.197 84.4693 206.872 82.5195 206.872 80.368C206.872 78.2837 207.085 76.2779 207.5 74.3729C207.925 72.468 208.519 70.6975 209.293 69.0726C210.066 67.4478 210.996 65.9798 212.083 64.6576C213.17 63.3465 214.38 62.2259 215.702 61.2958C217.024 60.3658 218.459 59.6598 220.005 59.1668C221.54 58.6737 223.154 58.4272 224.835 58.4272C226.09 58.4272 227.278 58.5953 228.409 58.9426C229.541 59.29 230.561 59.7607 231.48 60.377C232.399 60.9933 233.183 61.7329 233.844 62.6069C234.505 63.481 234.976 64.4335 235.279 65.4644H235.794L240.097 45.2044H245.756L235.413 93.8709H230.046L231.043 89.1197H230.527C229.261 90.7781 227.659 92.0892 225.743 93.0417C223.815 94.0054 221.753 94.4872 219.535 94.4872ZM221.305 89.4783C223.12 89.4783 224.79 89.0525 226.325 88.2008C227.86 87.3492 229.205 86.1838 230.348 84.7158C231.491 83.2367 232.388 81.511 233.026 79.5164C233.676 77.5218 234.001 75.3703 234.001 73.0731C234.001 71.5827 233.799 70.2492 233.385 69.0614C232.97 67.8736 232.388 66.8651 231.637 66.0359C230.886 65.2066 229.967 64.5679 228.891 64.1085C227.816 63.6491 226.594 63.4249 225.238 63.4249C223.445 63.4249 221.787 63.8283 220.263 64.624C218.728 65.4196 217.405 66.5289 216.285 67.9521C215.164 69.3752 214.279 71.0672 213.64 73.0395C213.002 75.0117 212.665 77.1744 212.665 79.5164C212.665 80.9843 212.878 82.329 213.293 83.5504C213.719 84.7831 214.301 85.8252 215.052 86.6993C215.803 87.5733 216.711 88.2456 217.764 88.7387C218.84 89.2318 220.016 89.4783 221.305 89.4783Z" fill="white"/>
<path d="M296.462 59.1331H283.844L270.084 76.1658H269.411L262.127 59.1331H249.375L260.312 83.8754L236.702 111.845H249.151L264.301 93.8821H265.321L273.501 111.845H286.029L273.916 85.1192L296.462 59.1331Z" fill="white"/>
<path d="M53.3308 85.7355C45.1506 85.7355 40.1081 79.606 41.7777 69.5656C43.4138 59.8054 50.1484 53.9448 58.0597 53.9448C66.1726 53.9448 71.2152 60.0968 69.5567 70.1371C67.9095 79.9085 61.2085 85.7355 53.3308 85.7355ZM57.8692 58.2142C52.3896 58.2142 47.5711 62.4724 46.3272 70.1483C45.0722 77.5553 48.3219 81.4773 53.4877 81.4773C58.9673 81.4773 63.7634 77.2416 65.0184 69.5656C66.2511 62.1698 63.0462 58.2142 57.8692 58.2142Z" fill="white"/>
<path d="M77.58 54.3707H88.6064C95.7781 54.3707 98.5907 58.6737 97.6606 64.3886C96.7082 70.0811 92.45 74.4401 85.2671 74.4401H78.9246L77.1093 85.3209H72.4365L77.58 54.3707ZM85.48 70.4733C90.0407 70.4733 92.3827 67.8736 92.943 64.3886C93.5145 60.87 92.069 58.3711 87.4634 58.3711H81.6028L79.597 70.4733H85.48V70.4733Z" fill="white"/>
<path d="M104.328 54.3707H123.882L123.042 58.3935H108.328L106.76 67.8176H119.545L118.727 71.818H106.099L104.53 81.2868H118.772L117.921 85.3097H99.1846L104.328 54.3707Z" fill="white"/>
<path d="M149.42 85.3097H145.128L134.012 62.6181H133.743L129.115 85.3097H124.442L130.975 54.3707H135.301L146.327 77.0959H146.619L151.336 54.3707H155.964L149.42 85.3097Z" fill="white"/>
<path d="M315.769 58.8194C315.153 58.8194 314.57 58.7073 314.032 58.472C313.494 58.2367 313.012 57.9229 312.609 57.5083C312.194 57.0937 311.881 56.6231 311.645 56.0852C311.41 55.5473 311.298 54.9646 311.298 54.3483C311.298 53.732 311.41 53.1493 311.645 52.6114C311.881 52.0735 312.194 51.5917 312.609 51.1883C313.024 50.7849 313.494 50.4599 314.032 50.2246C314.57 49.9893 315.153 49.8772 315.769 49.8772C316.385 49.8772 316.968 49.9893 317.506 50.2246C318.044 50.4599 318.526 50.7737 318.929 51.1883C319.344 51.6029 319.657 52.0735 319.893 52.6114C320.128 53.1493 320.24 53.732 320.24 54.3483C320.24 54.9646 320.128 55.5473 319.893 56.0852C319.657 56.6231 319.344 57.1049 318.929 57.5083C318.514 57.9229 318.044 58.2367 317.506 58.472C316.957 58.7073 316.385 58.8194 315.769 58.8194ZM315.769 57.9901C316.441 57.9901 317.046 57.8221 317.595 57.4971C318.145 57.1721 318.582 56.7351 318.907 56.186C319.232 55.6369 319.4 55.0318 319.4 54.3595C319.4 53.6871 319.232 53.082 318.907 52.533C318.582 51.9839 318.145 51.5469 317.595 51.2219C317.046 50.8969 316.441 50.7288 315.769 50.7288C315.097 50.7288 314.491 50.8969 313.942 51.2219C313.393 51.5469 312.956 51.9839 312.631 52.533C312.306 53.082 312.138 53.6871 312.138 54.3595C312.138 55.0318 312.306 55.6369 312.631 56.186C312.956 56.7351 313.393 57.1721 313.942 57.4971C314.48 57.8333 315.097 57.9901 315.769 57.9901ZM314.245 56.3653V52.2416H316.228C316.441 52.2416 316.643 52.2864 316.833 52.3873C317.024 52.4881 317.192 52.6338 317.315 52.8243C317.439 53.0148 317.506 53.2501 317.506 53.5303C317.506 53.8104 317.439 54.0457 317.304 54.2586C317.17 54.4603 317.002 54.6172 316.8 54.7293C316.598 54.8413 316.385 54.8862 316.172 54.8862H314.637V54.3259H315.982C316.172 54.3259 316.34 54.2586 316.497 54.1242C316.643 53.9897 316.721 53.7992 316.721 53.5415C316.721 53.2837 316.643 53.0932 316.497 52.9812C316.352 52.8691 316.184 52.8131 316.004 52.8131H314.962V56.3765H314.245V56.3653ZM316.654 54.4491L317.685 56.3653H316.878L315.881 54.4491H316.654Z" fill="#01262B"/>
</svg>
